<?xml version="1.0" encoding="UTF-8" standalone="no"?>
<!-- Created with Inkscape (http://www.inkscape.org/) -->

<svg
   width="82.661499mm"
   height="38.991844mm"
   viewBox="0 0 82.661499 38.991843"
   version="1.1"
   id="svg1"
   xmlns:inkscape="http://www.inkscape.org/namespaces/inkscape"
   xmlns:sodipodi="http://sodipodi.sourceforge.net/DTD/sodipodi-0.dtd"
   xmlns="http://www.w3.org/2000/svg"
   xmlns:svg="http://www.w3.org/2000/svg">
  <sodipodi:namedview
     id="namedview1"
     pagecolor="#ffffff"
     bordercolor="#000000"
     borderopacity="0.25"
     inkscape:showpageshadow="2"
     inkscape:pageopacity="0.0"
     inkscape:pagecheckerboard="0"
     inkscape:deskcolor="#d1d1d1"
     inkscape:document-units="mm" />
  <defs
     id="defs1" />
  <g
     inkscape:label="Lapis 1"
     inkscape:groupmode="layer"
     id="layer1"
     transform="translate(-53.445835,-180.71042)">
    <g
       id="g730"
       transform="matrix(0.35277777,0,0,0.35277777,25.670078,105.32035)">
      <path
         fill="#e3f2ff"
         d="m 262.13672,249.36719 c -6.95703,-19.12891 -34.69531,-27.48438 -55.42578,-16.875 -9.63672,-25.81641 -38.44532,-24.79688 -46.96875,1.64843 -17.95313,-8.5664 -40.16797,1.41797 -43.32031,19.875 -21.035161,0.0703 -37.710942,12.125 -37.675786,26.61329 0.04297,16.23046 21.406246,28.3125 44.175786,24.95703 10.66796,20.80859 53.39843,25.37109 73.82031,7.70312 15.625,17.61719 53.39843,13.0625 59.8789,-7.38281 24.72657,7.94531 56.3711,-3.64844 56.3711,-27.55859 0,-21.97266 -26.84766,-33.75391 -50.85547,-28.98047"
         fill-opacity="1"
         fill-rule="nonzero"
         id="path289" />
      <path
         fill="#e3f2ff"
         d="m 262.13672,249.36719 c -6.95703,-19.12891 -34.69531,-27.48438 -55.42578,-16.875 -9.63672,-25.81641 -38.44532,-24.79688 -46.96875,1.64843 -17.95313,-8.5664 -40.16797,1.41797 -43.32031,19.875 -21.035161,0.0703 -37.710942,12.125 -37.675786,26.61329 0.04297,16.23046 21.406246,28.3125 44.175786,24.95703 10.66796,20.80859 53.39843,25.37109 73.82031,7.70312 15.625,17.61719 53.39843,13.0625 59.8789,-7.38281 24.72657,7.94531 56.3711,-3.64844 56.3711,-27.55859 0,-21.97266 -26.84766,-33.75391 -50.85547,-28.98047"
         fill-opacity="1"
         fill-rule="nonzero"
         id="path290" />
      <path
         fill="#ffffff"
         d="m 116.23828,254.01953 c -1.26172,2.35156 -2.16797,4.92188 -2.64453,7.6875 -14.878906,0.043 -27.644531,5.77734 -34.234375,14.09766 3.167969,-12.20313 18.320313,-21.66407 36.878905,-21.78516"
         fill-opacity="1"
         fill-rule="nonzero"
         id="path291" />
      <path
         fill="#ffffff"
         d="m 311.93359,271.07031 c -9.21484,-12.10937 -29.12109,-17.67578 -47.4414,-14.08984 -7.20313,-19.46094 -35.92578,-27.96094 -57.39453,-17.16406 -9.98438,-26.26172 -39.81641,-25.22266 -48.64063,1.67187 -15.66406,-7.33984 -34.48047,-1.28125 -41.94531,12.04688 3.45703,-18.15625 25.4414,-27.88672 43.23437,-19.39844 8.52344,-26.44531 37.33203,-27.46094 46.96875,-1.64063 20.73047,-10.60937 48.46094,-2.25 55.42578,16.8711 21.20704,-4.21094 44.61719,4.48437 49.79297,21.70312"
         fill-opacity="1"
         fill-rule="nonzero"
         id="path292" />
      <path
         fill="#e3f2ff"
         d="m 116.51172,253.53516 c -0.0391,0.16015 -0.0664,0.3164 -0.0937,0.48437 h -0.17969 c 0.0859,-0.16797 0.17969,-0.32422 0.27344,-0.48437"
         fill-opacity="1"
         fill-rule="nonzero"
         id="path293" />
      <path
         fill="#b6d5f0"
         d="m 256.61328,305.90234 c -6.4375,20.39453 -44.19922,25.05078 -59.875,7.38672 -20.44531,17.69922 -63.17969,13.07031 -73.8164,-7.70312 -25.226568,3.73828 -48.67188,-11.57422 -43.45313,-30.17969 3.925781,13.66797 23.26953,22.89453 43.45313,19.90625 5.55468,10.84375 21.36718,18.65625 40.01171,18.65625 13.84375,0 26.32032,-12.18359 34.00391,-18.83203 5.84375,6.58203 15.91016,18.83203 27.60156,18.83203 15.65625,0 28.75781,-7.83203 32.07422,-18.33984 22.82031,7.33593 51.67578,-1.96094 55.86719,-22.41797 5.39453,26.35547 -28.58985,41.45703 -55.86719,32.6914"
         fill-opacity="1"
         fill-rule="nonzero"
         id="path294" />
      <path
         fill="#b6d5f0"
         d="m 291.88281,295.19531 c -15.97265,13.57813 -37.66797,8.11719 -45.34375,-11.28906 11.96094,11.51562 29.3711,15.85156 45.34375,11.28906"
         fill-opacity="1"
         fill-rule="nonzero"
         id="path295" />
      <path
         fill="#b6d5f0"
         d="m 139.00391,288.33984 c -11.44922,17.55469 -33.80469,18.48047 -46.687504,2.0586 14.746094,7.64062 32.671874,6.85156 46.687504,-2.0586"
         fill-opacity="1"
         fill-rule="nonzero"
         id="path296" />
      <path
         fill="#b6d5f0"
         d="m 221,286.41016 c -11.45313,17.55468 -33.80469,18.48437 -46.6875,2.0625 14.74219,7.63671 32.67187,6.84765 46.6875,-2.0625"
         fill-opacity="1"
         fill-rule="nonzero"
         id="path297" />
      <path
         fill="#ffffff"
         d="m 145.02734,269.97266 c 11.44922,-17.55469 33.80469,-18.48047 46.6875,-2.0625 -14.74218,-7.63672 -32.67187,-6.84766 -46.6875,2.0625"
         fill-opacity="1"
         fill-rule="nonzero"
         id="path298" />
      <path
         fill="#ffffff"
         d="m 253.75781,263.07422 c 11.45313,-17.55469 33.8086,-18.48047 46.6875,-2.0586 -14.74219,-7.64062 -32.67187,-6.85156 -46.6875,2.0586"
         fill-opacity="1"
         fill-rule="nonzero"
         id="path299" />
      <path
         fill="#ffffff"
         d="m 201.875,245.5625 c 10.12109,-18.35547 32.34375,-20.92969 46.40625,-5.50781 -15.26953,-6.52735 -33.08594,-4.41407 -46.40625,5.50781"
         fill-opacity="1"
         fill-rule="nonzero"
         id="path300" />
      <path
         fill="#ffffff"
         d="m 118.85547,247.13672 c 11.27734,-17.66406 33.62109,-18.8125 46.66406,-2.51563 -14.82031,-7.49218 -32.73828,-6.52734 -46.66406,2.51563"
         fill-opacity="1"
         fill-rule="nonzero"
         id="path301" />
    </g>
  </g>
</svg>
