<?xml version="1.0" encoding="UTF-8" standalone="no"?>
<!-- Created with Inkscape (http://www.inkscape.org/) -->

<svg
   width="53.684235mm"
   height="53.684235mm"
   viewBox="0 0 53.684233 53.684233"
   version="1.1"
   id="svg1"
   xmlns:inkscape="http://www.inkscape.org/namespaces/inkscape"
   xmlns:sodipodi="http://sodipodi.sourceforge.net/DTD/sodipodi-0.dtd"
   xmlns="http://www.w3.org/2000/svg"
   xmlns:svg="http://www.w3.org/2000/svg">
  <sodipodi:namedview
     id="namedview1"
     pagecolor="#ffffff"
     bordercolor="#000000"
     borderopacity="0.25"
     inkscape:showpageshadow="2"
     inkscape:pageopacity="0.0"
     inkscape:pagecheckerboard="0"
     inkscape:deskcolor="#d1d1d1"
     inkscape:document-units="mm" />
  <defs
     id="defs1">
    <clipPath
       id="a5349e8a7a">
      <path
         d="M 424.5,200.62891 H 576.67578 V 352.80469 H 424.5 Z m 0,0"
         clip-rule="nonzero"
         id="path3" />
    </clipPath>
  </defs>
  <g
     inkscape:label="Lapis 1"
     inkscape:groupmode="layer"
     id="layer1"
     transform="translate(-67.997925,-173.30209)">
    <g
       id="g728"
       transform="matrix(0.35277777,0,0,0.35277777,-81.756238,102.52467)">
      <g
         clip-path="url(#a5349e8a7a)"
         id="g285">
        <path
           fill="#f79814"
           d="m 576.69141,276.72656 c -36.28516,-7.33203 -38.26563,-14.19531 -10.39844,-38.40234 -34.77735,12.41015 -39.70703,7.48047 -27.29688,-27.29297 -24.20312,27.86328 -31.07031,25.88281 -38.40234,-10.40234 -7.32813,36.28515 -14.19531,38.26562 -38.39844,10.40234 12.41016,34.77344 7.48047,39.70312 -27.29297,27.29297 27.86328,24.20703 25.88282,31.07031 -10.40234,38.40234 36.28516,7.32813 38.26562,14.19531 10.40234,38.40235 34.77344,-12.41407 39.70313,-7.48438 27.29297,27.29296 24.20313,-27.86718 31.07031,-25.88671 38.39844,10.39844 7.33203,-36.28515 14.19922,-38.26562 38.40234,-10.39844 -12.41015,-34.77734 -7.48047,-39.70703 27.29688,-27.29296 -27.86719,-24.20704 -25.88672,-31.07422 10.39844,-38.40235"
           fill-opacity="1"
           fill-rule="nonzero"
           id="path285" />
      </g>
      <path
         fill="#f68712"
         d="m 492.18359,234.125 c 4.25391,-2.54688 7.40625,-6.86719 8.53516,-11.69141 0.82422,3.84766 2.63672,7.66407 5.83594,9.95313 3.19922,2.28906 7.96875,2.6289 10.94531,0.0586 -0.31641,0.92188 -0.43359,1.91016 -0.34375,2.87891 2.1875,0.96875 4.73047,-0.48828 6.26172,-2.32813 1.53125,-1.83984 2.55859,-4.11328 4.39062,-5.65625 -1.11328,3.71485 -2.23047,7.66407 -1.22265,11.40625 1.01172,3.74219 5.04297,6.94532 8.67578,5.59766 -1.26563,1.12109 -2.20703,2.60937 -2.67969,4.23437 3.89844,3.1875 9.81641,3.625 14.14453,1.05079 -2.55859,2.2539 -4.71875,5.1289 -5.42969,8.46484 -0.71484,3.33594 0.25782,7.15625 2.96094,9.23437 0,0.0859 0.23047,0.19922 0.23047,0.28516 3.68359,4.71875 8.96094,7.71875 14.87891,8.61328 -5.20313,0.76953 -10.29297,3.37891 -13.22266,7.75 -2.92969,4.36719 -3.27734,10.58203 -0.14062,14.80078 -0.83204,-0.16797 -1.66797,-0.33984 -2.5,-0.51172 -0.84375,1.35547 0.16796,3.08985 1.2539,4.26172 1.70313,1.84375 3.6836,3.4336 5.85547,4.69922 -2.39844,-1.22265 -4.85937,-2.46094 -7.53125,-2.77344 -2.67578,-0.30859 -7.04297,-0.55468 -8.60937,1.63282 -4.63672,6.48047 -7.17579,14.36718 -4.95704,22.02343 -3.10546,-3.48437 -7.1875,-6.08984 -11.65625,-7.4414 -1.94921,-0.58985 -4.0625,-0.94531 -6.00781,-0.34375 -3.59375,1.10937 -5.49609,5.04297 -6.27344,8.72265 -0.33203,-0.89843 -0.34375,-1.91015 -0.79296,-2.75781 -0.44922,-0.84765 -1.66016,-1.42578 -2.35938,-0.77344 -0.28125,0.26172 -0.39844,0.64844 -0.5,1.01563 -1.21094,4.34375 -1.74219,8.83984 -2.26562,13.32031 -0.51563,-4.59375 -1.35157,-9.14844 -2.5,-13.625 -1.21094,-4.71875 -8.07813,-7.10937 -12.88672,-6.33984 -4.8086,0.76953 -8.99219,3.875 -12.0625,7.65625 0.92578,-2.67188 1.85937,-5.3711 2.1914,-8.17969 0.33594,-2.80859 0.0312,-5.77344 -1.38672,-8.21875 -1.52734,-2.63281 -4.22265,-4.4375 -7.10546,-5.41797 -2.87891,-0.97656 -5.95704,-1.20703 -9,-1.27734 -1.19532,-0.0312 -2.45704,-0.0234 -3.50391,0.55859 2.26953,-2.58203 2.32812,-6.11328 2.81641,-9.51562 0.66015,-4.58203 0.82812,-9.62891 -1.82422,-13.41797 -2.46485,-3.51563 -6.78516,-5.125 -10.83594,-6.54297 4.11719,0.71875 8.48047,-1.10938 11.17969,-4.29688 2.70312,-3.1875 3.79687,-7.57421 3.34375,-11.72656 -0.51172,-4.64453 -2.91407,-9.04687 -6.54297,-11.98828 1.60547,0.76563 3.21484,1.53125 4.82422,2.29688 1.42578,0.67578 3.02734,1.37109 4.53125,0.88281 1.5,-0.48828 2.30468,-2.82031 0.96093,-3.64844 1.17188,1.64063 3.71094,1.77344 5.45313,0.76563 1.74609,-1.00782 2.83594,-2.84766 3.66016,-4.6836 2.14062,-4.74219 3.03906,-10.03515 2.58984,-15.21875 2.67969,4.46875 8.34766,6.29297 13.55078,6.58594 1.75391,0.10156 3.56641,0.52734 5.07031,-0.375"
         fill-opacity="1"
         fill-rule="nonzero"
         id="path286" />
      <path
         fill="#fabe11"
         d="m 540.40625,276.72656 c 0,-21.98828 -17.82422,-39.8125 -39.8125,-39.8125 -21.98438,0 -39.80859,17.82422 -39.80859,39.8125 0,21.98828 17.82421,39.8086 39.80859,39.8086 21.98828,0 39.8125,-17.82032 39.8125,-39.8086"
         fill-opacity="1"
         fill-rule="nonzero"
         id="path287" />
    </g>
  </g>
</svg>
