<svg xmlns="http://www.w3.org/2000/svg" xmlns:xlink="http://www.w3.org/1999/xlink" width="500" zoomAndPan="magnify" viewBox="0 0 375 374.999991" height="500" preserveAspectRatio="xMidYMid meet" version="1.0"><defs><clipPath id="39a5fc28b0"><path d="M 366.0625 44.105469 L 366.230469 44.105469 L 366.230469 99 L 366.0625 99 Z M 366.0625 44.105469 " clip-rule="nonzero"/></clipPath><clipPath id="b489b455ec"><path d="M 12.390625 39.113281 L 366.230469 39.113281 L 366.230469 356.996094 L 12.390625 356.996094 Z M 12.390625 39.113281 " clip-rule="nonzero"/></clipPath><clipPath id="5e5bce22a6"><path d="M 366.0625 98.167969 L 366.230469 98.167969 L 366.230469 356.996094 L 366.0625 356.996094 Z M 366.0625 98.167969 " clip-rule="nonzero"/></clipPath><clipPath id="6b79ff9c95"><path d="M 12.390625 82.363281 L 366.230469 82.363281 L 366.230469 271.996094 L 12.390625 271.996094 Z M 12.390625 82.363281 " clip-rule="nonzero"/></clipPath><clipPath id="4f88df8215"><path d="M 219 14.246094 L 317 14.246094 L 317 77 L 219 77 Z M 219 14.246094 " clip-rule="nonzero"/></clipPath><clipPath id="2f057cbd0b"><path d="M 12.390625 228 L 366.230469 228 L 366.230469 356.996094 L 12.390625 356.996094 Z M 12.390625 228 " clip-rule="nonzero"/></clipPath><clipPath id="792321f044"><path d="M 366.0625 271.164062 L 366.230469 271.164062 L 366.230469 356.996094 L 366.0625 356.996094 Z M 366.0625 271.164062 " clip-rule="nonzero"/></clipPath><clipPath id="74a68160ff"><path d="M 366.0625 271.164062 L 366.230469 271.164062 L 366.230469 271.996094 L 366.0625 271.996094 Z M 366.0625 271.164062 " clip-rule="nonzero"/></clipPath><clipPath id="86ea2a9a83"><path d="M 12.390625 236.230469 L 366.230469 236.230469 L 366.230469 356.996094 L 12.390625 356.996094 Z M 12.390625 236.230469 " clip-rule="nonzero"/></clipPath></defs><path fill="#fffa94" d="M 330.375 180.175781 C 330.375 258.039062 267.21875 321.160156 189.3125 321.160156 C 111.402344 321.160156 48.246094 258.039062 48.246094 180.175781 C 48.246094 102.308594 111.402344 39.1875 189.3125 39.1875 C 267.21875 39.1875 330.375 102.308594 330.375 180.175781 " fill-opacity="1" fill-rule="nonzero"/><g clip-path="url(#39a5fc28b0)"><path fill="#ffffff" d="M 366.230469 98.472656 C 366.230469 98.398438 366.230469 98.320312 366.226562 98.246094 L 366.226562 44.347656 C 366.230469 44.347656 366.230469 44.347656 366.230469 44.347656 L 366.230469 98.472656 " fill-opacity="1" fill-rule="nonzero"/></g><g clip-path="url(#b489b455ec)"><path fill="#beeafb" d="M 12.394531 356.996094 L 12.394531 39.851562 C 12.792969 39.828125 13.191406 39.8125 13.582031 39.8125 C 24.042969 39.8125 32.578125 48.523438 32.578125 59.300781 C 32.578125 63.015625 31.867188 63.074219 32.511719 63.074219 C 32.53125 63.074219 32.554688 63.074219 32.578125 63.074219 C 48.675781 63.074219 57.238281 82.140625 47.425781 94.714844 C 49.902344 95.359375 52.183594 96.496094 54.164062 98.023438 C 53.453125 99.011719 52.84375 100.066406 52.339844 101.171875 C 51.113281 100.847656 49.816406 100.671875 48.476562 100.671875 C 40.402344 100.671875 33.8125 107.117188 33.324219 115.257812 C 31.429688 114.464844 29.484375 114.09375 27.589844 114.09375 C 19.601562 114.09375 12.394531 120.660156 12.394531 129.679688 L 12.394531 356.996094 M 337.585938 105.714844 C 336.394531 105.148438 335.207031 104.753906 334.035156 104.503906 C 334.351562 104.488281 334.675781 104.480469 334.996094 104.480469 C 335.675781 104.480469 336.363281 104.519531 337.058594 104.59375 C 337.21875 104.96875 337.394531 105.34375 337.585938 105.714844 M 335.867188 99.6875 C 332.625 88.679688 339.59375 76.398438 351.621094 74.792969 C 343.347656 62.398438 351.394531 45.210938 366.226562 44.347656 L 366.226562 98.246094 C 366.109375 89.765625 359.351562 82.925781 351.03125 82.925781 C 341.746094 82.925781 335.210938 91.117188 335.867188 99.6875 " fill-opacity="1" fill-rule="nonzero"/></g><path fill="#fffcca" d="M 265.941406 181.585938 C 262.964844 177.886719 258.625 175.914062 254.21875 175.914062 C 251.566406 175.914062 248.890625 176.625 246.46875 178.097656 C 247.914062 167.6875 239.75 160.367188 231.261719 160.367188 C 227.335938 160.367188 223.335938 161.9375 220.1875 165.488281 C 218.953125 157.027344 212.019531 152.265625 205.039062 152.265625 C 199.886719 152.265625 194.714844 154.855469 191.773438 160.457031 C 188.71875 157.332031 184.890625 155.898438 181.121094 155.898438 C 174.414062 155.898438 167.890625 160.417969 166.210938 167.996094 C 163.507812 166.03125 160.46875 165.128906 157.484375 165.128906 C 150.589844 165.128906 143.992188 169.953125 142.527344 177.710938 C 140.074219 176.1875 137.355469 175.453125 134.667969 175.453125 C 130.398438 175.453125 126.195312 177.308594 123.214844 180.808594 C 120.878906 175.300781 115.519531 171.441406 109.273438 171.441406 C 108.582031 171.441406 108.203125 171.496094 108.023438 171.496094 C 107.40625 171.496094 109.273438 170.867188 109.273438 165.210938 C 109.273438 155.992188 101.867188 149.667969 93.996094 149.667969 C 91.0625 149.667969 88.058594 150.550781 85.351562 152.492188 C 83.390625 148.542969 79.832031 145.582031 75.546875 144.46875 C 79.746094 139.09375 79.734375 132.230469 76.832031 127.019531 C 79.777344 125.738281 82.335938 123.726562 84.273438 121.214844 C 84.757812 133.101562 94.003906 139.234375 103.238281 139.234375 C 104.320312 139.234375 105.402344 139.152344 106.472656 138.984375 C 106.683594 139.40625 106.886719 139.835938 107.070312 140.273438 C 107.621094 139.625 108.207031 139.023438 108.816406 138.464844 C 111.585938 137.675781 114.175781 136.28125 116.324219 134.273438 C 117.976562 133.800781 119.683594 133.558594 121.398438 133.558594 C 124.765625 133.558594 128.167969 134.484375 131.234375 136.390625 C 131.796875 133.425781 132.960938 130.792969 134.554688 128.570312 C 134.800781 128.578125 135.046875 128.582031 135.292969 128.582031 C 142.628906 128.582031 147.8125 125.328125 150.847656 120.730469 C 151.792969 120.894531 152.785156 120.992188 153.820312 121.027344 C 156.253906 121.550781 158.652344 122.59375 160.875 124.207031 C 161.269531 122.414062 161.882812 120.753906 162.671875 119.246094 C 165.402344 117.960938 167.773438 116.035156 169.597656 113.671875 C 170.082031 125.558594 179.335938 131.699219 188.570312 131.699219 C 197.15625 131.699219 205.722656 126.394531 207.214844 115.46875 C 210.640625 118.90625 215.382812 121.039062 220.621094 121.039062 C 223.457031 121.039062 225.972656 120.550781 228.164062 119.691406 C 228.261719 120.140625 228.339844 120.601562 228.410156 121.066406 C 232.332031 116.628906 237.367188 114.648438 242.320312 114.648438 C 252.070312 114.648438 261.503906 122.339844 261.503906 134.136719 C 261.503906 136.203125 261.351562 136.894531 261.546875 136.894531 C 261.9375 136.894531 263.730469 134.136719 270.972656 134.136719 C 276.894531 134.136719 282.171875 136.902344 285.664062 141.246094 C 286.828125 130.636719 295.550781 123.957031 304.640625 123.957031 C 308.761719 123.957031 312.960938 125.332031 316.558594 128.335938 C 316.09375 126.257812 315.964844 124.203125 316.128906 122.230469 C 316.464844 124.371094 317.28125 126.519531 318.65625 128.578125 C 311.195312 129.570312 305.433594 136.078125 305.433594 143.976562 C 305.433594 151.476562 308.824219 152.316406 307.707031 152.316406 C 307.386719 152.316406 306.691406 152.246094 305.433594 152.246094 C 295.796875 152.246094 288.414062 161.382812 290.632812 171.285156 C 287.757812 168.890625 284.40625 167.792969 281.121094 167.792969 C 273.847656 167.792969 266.871094 173.148438 265.941406 181.585938 " fill-opacity="1" fill-rule="nonzero"/><path fill="#beeafb" d="M 316.59375 119.320312 C 316.414062 118.945312 316.230469 118.5625 316.042969 118.191406 C 316.90625 110.632812 323.34375 104.195312 331.09375 104.195312 C 332.054688 104.195312 333.039062 104.296875 334.035156 104.503906 C 325.539062 104.945312 318.53125 111.175781 316.59375 119.320312 M 338.175781 104.75 C 337.800781 104.6875 337.429688 104.636719 337.058594 104.59375 C 336.378906 102.980469 335.992188 101.328125 335.867188 99.6875 C 336.375 101.421875 337.136719 103.125 338.175781 104.75 " fill-opacity="1" fill-rule="nonzero"/><path fill="#fffcca" d="M 316.128906 122.230469 C 315.914062 120.867188 315.894531 119.511719 316.042969 118.191406 C 316.230469 118.5625 316.414062 118.945312 316.59375 119.320312 C 316.367188 120.265625 316.210938 121.238281 316.128906 122.230469 " fill-opacity="1" fill-rule="nonzero"/><g clip-path="url(#5e5bce22a6)"><path fill="#ffffff" d="M 366.230469 356.996094 L 366.226562 271.5625 L 366.226562 98.246094 C 366.230469 98.320312 366.230469 98.398438 366.230469 98.472656 L 366.230469 356.996094 " fill-opacity="1" fill-rule="nonzero"/></g><g clip-path="url(#6b79ff9c95)"><path fill="#dff5fd" d="M 366.226562 271.5625 C 366.210938 271.550781 366.191406 271.539062 366.175781 271.527344 C 361.148438 268.097656 355.773438 264.878906 350.074219 261.867188 C 351.425781 261.15625 352.183594 259.703125 352.183594 258.25 C 352.183594 256.8125 351.441406 255.375 349.800781 254.644531 C 351.308594 253.964844 352.167969 252.503906 352.167969 250.996094 C 352.167969 250.296875 351.980469 249.585938 351.59375 248.933594 C 352.394531 248.15625 352.804688 247.117188 352.800781 246.070312 C 352.800781 245.246094 352.542969 244.414062 352.015625 243.699219 C 353.039062 242.871094 353.503906 241.730469 353.503906 240.601562 C 353.503906 238.671875 352.128906 236.78125 349.773438 236.589844 C 349.886719 236.179688 349.941406 235.785156 349.941406 235.40625 C 349.941406 233.074219 347.886719 231.492188 345.816406 231.492188 C 344.515625 231.492188 343.210938 232.117188 342.40625 233.570312 C 342.410156 233.507812 342.414062 233.441406 342.414062 233.378906 C 342.414062 231.390625 340.941406 229.664062 338.917969 229.40625 C 338.675781 229.375 338.589844 229.355469 338.589844 229.292969 C 338.589844 229.15625 338.996094 228.816406 339.136719 227.703125 C 339.328125 226.226562 338.753906 224.996094 337.828125 224.195312 C 337.214844 223.652344 336.441406 223.292969 335.570312 223.203125 C 335.417969 223.1875 335.265625 223.179688 335.109375 223.179688 C 334.027344 223.179688 332.925781 223.621094 332.085938 224.625 C 331.796875 222.347656 329.941406 221.128906 328.082031 221.128906 C 326.527344 221.128906 324.972656 221.980469 324.335938 223.785156 C 324.289062 223.242188 324.15625 222.757812 323.957031 222.335938 C 328.125 209.027344 330.375 194.859375 330.375 180.175781 C 330.375 158.378906 325.429688 137.746094 316.59375 119.320312 C 318.53125 111.175781 325.539062 104.945312 334.035156 104.503906 C 335.207031 104.753906 336.394531 105.148438 337.585938 105.714844 C 337.394531 105.34375 337.21875 104.96875 337.058594 104.59375 C 337.429688 104.636719 337.800781 104.6875 338.175781 104.75 C 337.136719 103.125 336.375 101.421875 335.867188 99.6875 C 335.210938 91.117188 341.746094 82.925781 351.03125 82.925781 C 359.351562 82.925781 366.109375 89.765625 366.226562 98.246094 L 366.226562 271.5625 M 12.394531 270.554688 L 12.394531 129.679688 C 12.394531 120.660156 19.601562 114.09375 27.589844 114.09375 C 29.484375 114.09375 31.429688 114.464844 33.324219 115.257812 C 33.8125 107.117188 40.402344 100.671875 48.476562 100.671875 C 49.816406 100.671875 51.113281 100.847656 52.339844 101.171875 C 48.519531 109.585938 50.753906 120.839844 59.074219 125.910156 C 52.097656 142.613281 48.246094 160.945312 48.246094 180.175781 C 48.246094 195.53125 50.703125 210.316406 55.242188 224.152344 C 54.101562 224.328125 52.90625 224.792969 51.667969 225.632812 C 46.945312 228.835938 49.019531 239.484375 53.707031 244.386719 C 53.496094 244.359375 53.289062 244.347656 53.085938 244.347656 C 51.058594 244.347656 49.207031 245.574219 48.363281 248.394531 C 47.847656 250.113281 47.777344 251.441406 48.078125 252.445312 C 34.898438 257.640625 22.875 263.679688 12.394531 270.554688 " fill-opacity="1" fill-rule="nonzero"/></g><path fill="#fffee5" d="M 288.351562 239.574219 C 257.570312 232.285156 223.519531 228.667969 189.46875 228.667969 C 159.480469 228.667969 129.480469 231.46875 101.691406 237.027344 C 103.648438 232.328125 101.210938 227.617188 97.71875 227.617188 C 96.597656 227.617188 95.367188 228.105469 94.140625 229.238281 C 96.566406 224.851562 92.566406 222.300781 87.882812 222.300781 C 84.238281 222.300781 80.183594 223.84375 78.402344 227.257812 C 78.132812 224.699219 76.429688 221.835938 74.1875 221.34375 C 73.894531 221.277344 73.597656 221.246094 73.296875 221.246094 C 69.265625 221.246094 64.660156 226.773438 64.960938 230.648438 C 63.386719 227.492188 60.242188 224.070312 56.296875 224.070312 C 55.953125 224.070312 55.601562 224.097656 55.242188 224.152344 C 50.703125 210.316406 48.246094 195.53125 48.246094 180.175781 C 48.246094 160.945312 52.097656 142.613281 59.074219 125.910156 C 61.816406 127.582031 65.226562 128.582031 69.296875 128.582031 C 71.976562 128.582031 74.523438 128.023438 76.832031 127.019531 C 79.734375 132.230469 79.746094 139.09375 75.546875 144.46875 C 79.832031 145.582031 83.390625 148.542969 85.351562 152.492188 C 88.058594 150.550781 91.0625 149.667969 93.996094 149.667969 C 101.867188 149.667969 109.273438 155.992188 109.273438 165.210938 C 109.273438 170.867188 107.40625 171.496094 108.023438 171.496094 C 108.203125 171.496094 108.582031 171.441406 109.273438 171.441406 C 115.519531 171.441406 120.878906 175.300781 123.214844 180.808594 C 126.195312 177.308594 130.398438 175.453125 134.667969 175.453125 C 137.355469 175.453125 140.074219 176.1875 142.527344 177.710938 C 143.992188 169.953125 150.589844 165.128906 157.484375 165.128906 C 160.46875 165.128906 163.507812 166.03125 166.210938 167.996094 C 167.890625 160.417969 174.414062 155.898438 181.121094 155.898438 C 184.890625 155.898438 188.71875 157.332031 191.773438 160.457031 C 194.714844 154.855469 199.886719 152.265625 205.039062 152.265625 C 212.019531 152.265625 218.953125 157.027344 220.1875 165.488281 C 223.335938 161.9375 227.335938 160.367188 231.261719 160.367188 C 239.75 160.367188 247.914062 167.6875 246.46875 178.097656 C 248.890625 176.625 251.566406 175.914062 254.21875 175.914062 C 258.625 175.914062 262.964844 177.886719 265.941406 181.585938 C 266.871094 173.148438 273.847656 167.792969 281.121094 167.792969 C 284.40625 167.792969 287.757812 168.890625 290.632812 171.285156 C 288.414062 161.382812 295.796875 152.246094 305.433594 152.246094 C 306.691406 152.246094 307.386719 152.316406 307.707031 152.316406 C 308.824219 152.316406 305.433594 151.476562 305.433594 143.976562 C 305.433594 136.078125 311.195312 129.570312 318.65625 128.578125 C 317.28125 126.519531 316.464844 124.371094 316.128906 122.230469 C 316.210938 121.238281 316.367188 120.265625 316.59375 119.320312 C 325.429688 137.746094 330.375 158.378906 330.375 180.175781 C 330.375 194.859375 328.125 209.027344 323.957031 222.335938 C 323.277344 220.878906 321.800781 220.136719 320.328125 220.136719 C 318.496094 220.136719 316.660156 221.285156 316.359375 223.613281 C 316.230469 224.613281 316.445312 224.777344 316.378906 224.777344 C 316.355469 224.777344 316.308594 224.761719 316.214844 224.75 C 316.039062 224.726562 315.867188 224.71875 315.695312 224.71875 C 314.476562 224.71875 313.351562 225.277344 312.609375 226.175781 C 311.898438 224.640625 310.4375 223.851562 308.972656 223.851562 C 307.679688 223.851562 306.386719 224.460938 305.59375 225.710938 C 304.964844 223.761719 303.464844 222.941406 301.941406 222.941406 C 299.402344 222.941406 296.796875 225.21875 298.039062 228.386719 C 297.46875 228.117188 296.882812 227.992188 296.308594 227.992188 C 294.375 227.992188 292.601562 229.40625 292.332031 231.488281 C 292.144531 232.964844 292.636719 233.253906 292.5 233.253906 C 292.453125 233.253906 292.339844 233.21875 292.113281 233.191406 C 291.910156 233.164062 291.714844 233.152344 291.523438 233.152344 C 288.109375 233.152344 286.542969 237.179688 288.351562 239.574219 " fill-opacity="1" fill-rule="nonzero"/><path fill="#8cb84c" d="M 283.371094 238.320312 C 283.027344 240.980469 279.003906 240.457031 279.34375 237.800781 C 279.6875 235.140625 283.710938 235.65625 283.371094 238.320312 " fill-opacity="1" fill-rule="nonzero"/><path fill="#8cb84c" d="M 292.515625 235.550781 C 292.175781 238.207031 288.152344 237.695312 288.492188 235.03125 C 288.835938 232.371094 292.859375 232.886719 292.515625 235.550781 " fill-opacity="1" fill-rule="nonzero"/><path fill="#8cb84c" d="M 291.65625 244.546875 C 291.128906 248.601562 285 247.808594 285.523438 243.757812 C 286.046875 239.703125 292.179688 240.492188 291.65625 244.546875 " fill-opacity="1" fill-rule="nonzero"/><path fill="#4e8232" d="M 331.351562 234.277344 C 333.554688 233.289062 334.382812 230.617188 333.148438 228.566406 C 334.585938 227.160156 334.753906 224.933594 333.574219 223.328125 C 336.398438 221.050781 334.949219 216.441406 331.328125 216.222656 C 332.601562 211.652344 326.253906 209.054688 323.964844 213.199219 C 324.0625 211.132812 322.5625 209.304688 320.476562 209.035156 C 319.699219 208.945312 320.480469 208.980469 320.695312 207.335938 C 321.203125 203.363281 316.199219 201.199219 313.640625 204.253906 C 313.113281 200.082031 307.292969 199.449219 305.886719 203.417969 C 305.488281 198.675781 298.53125 198.484375 297.914062 203.246094 C 297.746094 204.566406 298.167969 204.429688 297.769531 204.378906 C 296.351562 204.199219 295.011719 204.78125 294.164062 205.808594 C 292.828125 202.929688 288.851562 202.664062 287.144531 205.339844 C 285.492188 200.183594 277.605469 202.902344 279.59375 208.015625 C 277.117188 206.832031 274.234375 208.425781 273.882812 211.117188 C 273.628906 213.101562 274.605469 212.945312 273.664062 212.824219 C 269.042969 212.230469 267.308594 218.722656 271.628906 220.5 C 271.417969 221.023438 268.550781 221.128906 268.152344 224.234375 C 267.855469 226.519531 269.558594 228.664062 272.015625 228.757812 C 270.410156 231.207031 271.914062 234.535156 274.859375 234.914062 C 274.417969 238.351562 278.773438 240.140625 279.03125 240 C 275.804688 243.398438 280.136719 248.675781 284.109375 246.117188 C 284.945312 248.269531 287.433594 249.292969 289.554688 248.292969 C 288.238281 252.824219 294.449219 255.476562 296.839844 251.480469 C 298.863281 254.261719 303.210938 253.359375 303.988281 250.046875 C 306.476562 252.332031 310.542969 250.6875 310.703125 247.296875 C 313.140625 248.71875 316.292969 247.214844 316.683594 244.378906 C 318.070312 246.339844 320.828125 246.652344 322.617188 245.0625 C 323.65625 251.867188 333.9375 247.195312 329.699219 241.945312 C 334.019531 241.984375 335.335938 236.039062 331.351562 234.277344 " fill-opacity="1" fill-rule="nonzero"/><path fill="#75be41" d="M 349.800781 254.644531 C 352.003906 253.648438 352.824219 250.988281 351.59375 248.933594 C 353.023438 247.542969 353.207031 245.3125 352.015625 243.699219 C 354.78125 241.464844 353.503906 236.894531 349.773438 236.589844 C 351.054688 232.023438 344.691406 229.421875 342.40625 233.570312 C 342.507812 231.503906 341.007812 229.675781 338.917969 229.40625 C 338.152344 229.304688 338.925781 229.339844 339.136719 227.703125 C 339.652344 223.738281 334.652344 221.554688 332.085938 224.625 C 331.554688 220.441406 325.730469 219.828125 324.335938 223.785156 C 323.933594 219.027344 316.972656 218.875 316.359375 223.613281 C 316.1875 224.929688 316.613281 224.796875 316.214844 224.75 C 314.796875 224.566406 313.457031 225.148438 312.609375 226.175781 C 311.273438 223.289062 307.289062 223.042969 305.59375 225.710938 C 303.921875 220.523438 296.054688 223.3125 298.039062 228.386719 C 295.5625 227.207031 292.679688 228.789062 292.332031 231.488281 C 292.082031 233.449219 293.035156 233.3125 292.113281 233.191406 C 287.492188 232.597656 285.75 239.089844 290.070312 240.867188 C 289.863281 241.390625 286.996094 241.496094 286.597656 244.605469 C 286.300781 246.890625 288.003906 249.03125 290.457031 249.125 C 288.851562 251.597656 290.378906 254.902344 293.304688 255.285156 C 292.859375 258.71875 297.21875 260.507812 297.472656 260.371094 C 294.234375 263.777344 298.605469 269.042969 302.554688 266.480469 C 303.398438 268.65625 305.898438 269.652344 308.003906 268.664062 C 306.6875 273.183594 312.890625 275.859375 315.289062 271.847656 C 317.308594 274.632812 321.660156 273.726562 322.433594 270.417969 C 324.910156 272.699219 328.984375 271.070312 329.148438 267.667969 C 331.605469 269.09375 334.738281 267.566406 335.128906 264.746094 C 336.511719 266.707031 339.273438 267.023438 341.066406 265.429688 C 342.097656 272.234375 352.371094 267.554688 348.144531 262.3125 C 352.46875 262.347656 353.777344 256.40625 349.800781 254.644531 " fill-opacity="1" fill-rule="nonzero"/><path fill="#a6d734" d="M 318.757812 254.511719 C 316.910156 254.378906 321.777344 252.746094 320.53125 249.785156 C 319.363281 247.003906 317.78125 248.859375 317.34375 249.082031 C 316.816406 249.355469 316.324219 248.332031 317.960938 247.636719 C 319.980469 245.265625 319.121094 239.808594 315.457031 241.335938 C 315.132812 241.46875 311.496094 240.296875 309.785156 242.65625 C 308.28125 244.730469 310.292969 245.519531 311.84375 246.230469 C 312.191406 246.386719 312.144531 247.105469 311.550781 246.925781 L 311.550781 246.929688 C 307.304688 245.515625 306.972656 251.363281 310.484375 251.523438 C 310.949219 251.542969 310.875 252.179688 310.488281 252.277344 C 307.175781 253.113281 310.515625 259.085938 311.511719 257.328125 C 311.96875 255.761719 312.59375 256.453125 312.472656 256.882812 C 310.289062 263.441406 317.402344 261.789062 316.183594 259.351562 C 314.910156 257.839844 316.09375 257.492188 316.863281 258.992188 C 320.308594 263.019531 323.683594 254.863281 318.757812 254.511719 " fill-opacity="1" fill-rule="nonzero"/><path fill="#a6d734" d="M 329.023438 228.699219 C 328.117188 228.621094 329.527344 226.28125 327.988281 225.699219 C 326.984375 225.316406 326.730469 226.761719 326.679688 227.4375 C 326.644531 227.925781 325.890625 227.828125 325.925781 227.339844 C 325.949219 226.90625 326.023438 227.132812 325.757812 227.125 C 323.132812 227.105469 322.347656 230.125 325.34375 230.34375 C 325.792969 230.378906 325.75 231.015625 325.347656 231.097656 C 322 231.816406 326.023438 235.234375 327.289062 234.546875 C 328.558594 233.855469 326.902344 230.707031 328.257812 231.640625 C 330.65625 233.273438 332.644531 229.007812 329.023438 228.699219 " fill-opacity="1" fill-rule="nonzero"/><path fill="#a6d734" d="M 334.734375 244.105469 C 334.355469 244.222656 333.960938 243.695312 334.355469 243.453125 C 335.035156 243.042969 335.882812 242.371094 335.898438 241.492188 C 335.917969 240.359375 333.910156 240.542969 334.5 240.777344 C 334.953125 240.957031 334.660156 241.660156 334.203125 241.476562 C 333.054688 241.015625 331.632812 241.167969 331.175781 242.496094 C 330.429688 244.691406 332.882812 244.386719 333.050781 244.804688 C 335.335938 250.449219 339.316406 242.691406 334.734375 244.105469 " fill-opacity="1" fill-rule="nonzero"/><path fill="#6ca041" d="M 349.800781 254.644531 C 352.003906 253.648438 352.824219 250.988281 351.59375 248.933594 C 353.023438 247.542969 353.207031 245.3125 352.015625 243.699219 C 354.78125 241.464844 353.503906 236.894531 349.773438 236.589844 C 351.054688 232.023438 344.691406 229.421875 342.40625 233.570312 C 342.507812 231.503906 341.007812 229.675781 338.917969 229.40625 C 338.152344 229.304688 338.925781 229.339844 339.136719 227.703125 C 339.441406 225.339844 337.621094 223.214844 335.21875 223.183594 C 331.164062 226.003906 332.667969 233.632812 337.550781 231.6875 C 338.007812 231.554688 338.316406 232.203125 337.851562 232.390625 C 332.695312 233.914062 337.488281 240.167969 341.242188 239.628906 L 341.242188 239.632812 C 341.824219 239.632812 341.980469 240.421875 340.777344 240.414062 C 337.710938 240.804688 338.867188 245.03125 341.777344 245.730469 C 343.5625 245.820312 343.097656 246.871094 341.628906 246.472656 C 339.632812 246.421875 336.847656 247.914062 338.105469 249.6875 C 339.546875 250.886719 338.605469 251.554688 337.5625 250.226562 C 335.179688 248.363281 331.578125 250.675781 333.726562 253.773438 C 333.921875 254.054688 333.632812 254.554688 333.277344 254.355469 C 329.273438 252.117188 327.476562 259.496094 331.742188 260.332031 C 332.171875 260.417969 332.367188 261.25 331.164062 261.03125 C 329.273438 260.941406 328.363281 262.699219 328.570312 264.457031 C 328.78125 266.21875 330.117188 267.980469 332.722656 267.886719 C 333.980469 267.351562 334.929688 266.191406 335.128906 264.746094 C 336.511719 266.707031 339.273438 267.023438 341.066406 265.429688 C 342.082031 272.128906 352.46875 267.679688 348.144531 262.3125 C 352.46875 262.347656 353.777344 256.40625 349.800781 254.644531 " fill-opacity="1" fill-rule="nonzero"/><path fill="#6ca041" d="M 288.519531 239.726562 C 287.945312 235.320312 294.488281 235.582031 295.320312 239.277344 C 296.882812 237.171875 299.214844 240.414062 300.941406 242.648438 C 300.648438 240.71875 301.804688 238.429688 303.667969 238.8125 C 303.183594 236.792969 305.847656 234.21875 308.847656 235.359375 C 308.316406 233.21875 310.921875 231.628906 312.832031 232.742188 C 312.90625 231.101562 314.996094 230.253906 316.839844 230.609375 C 316.394531 228.871094 317.921875 226.433594 320 226 C 318.492188 224.492188 318.878906 221.667969 320.484375 220.125 C 315.988281 219.953125 316.390625 224.769531 316.214844 224.75 C 314.796875 224.566406 313.457031 225.148438 312.609375 226.175781 C 311.273438 223.289062 307.289062 223.042969 305.59375 225.710938 C 303.921875 220.523438 296.054688 223.3125 298.039062 228.386719 C 295.5625 227.207031 292.679688 228.789062 292.332031 231.488281 C 292.082031 233.449219 293.035156 233.3125 292.113281 233.191406 C 288.492188 232.726562 286.199219 236.949219 288.519531 239.726562 " fill-opacity="1" fill-rule="nonzero"/><path fill="#75be41" d="M 298.316406 242.914062 C 300.503906 241.925781 301.34375 239.265625 300.105469 237.203125 C 301.539062 235.808594 301.722656 233.578125 300.53125 231.964844 C 303.359375 229.683594 301.898438 225.078125 298.289062 224.855469 C 299.570312 220.292969 293.210938 217.6875 290.921875 221.835938 C 291.019531 219.773438 289.519531 217.945312 287.433594 217.675781 C 286.667969 217.574219 287.441406 217.605469 287.648438 215.972656 C 288.167969 212 283.15625 209.835938 280.597656 212.890625 C 280.066406 208.699219 274.246094 208.101562 272.847656 212.054688 C 272.445312 207.289062 265.484375 207.144531 264.871094 211.882812 C 264.703125 213.175781 265.125 213.074219 264.730469 213.019531 C 263.308594 212.832031 261.96875 213.417969 261.121094 214.445312 C 259.785156 211.558594 255.808594 211.304688 254.105469 213.976562 C 252.449219 208.8125 244.566406 211.546875 246.550781 216.652344 C 244.105469 215.476562 241.195312 217.039062 240.84375 219.753906 C 240.59375 221.730469 241.554688 221.574219 240.625 221.460938 C 236.003906 220.863281 234.265625 227.363281 238.585938 229.136719 C 238.375 229.660156 235.507812 229.765625 235.109375 232.871094 C 234.804688 235.226562 236.613281 237.328125 238.976562 237.390625 C 237.355469 239.882812 238.90625 243.175781 241.820312 243.546875 C 241.378906 246.980469 245.726562 248.777344 245.988281 248.640625 C 242.757812 252.023438 247.105469 257.3125 251.066406 254.753906 C 251.914062 256.925781 254.414062 257.921875 256.515625 256.929688 C 255.195312 261.441406 261.402344 264.128906 263.800781 260.117188 C 265.808594 262.878906 270.164062 262.027344 270.949219 258.679688 C 273.421875 260.960938 277.5 259.335938 277.660156 255.9375 C 280.121094 257.359375 283.253906 255.835938 283.644531 253.015625 C 285.027344 254.972656 287.785156 255.289062 289.578125 253.699219 C 290.613281 260.519531 300.878906 255.824219 296.660156 250.582031 C 301 250.621094 302.273438 244.664062 298.316406 242.914062 " fill-opacity="1" fill-rule="nonzero"/><path fill="#4e8232" d="M 267.714844 230.609375 C 268.0625 227.675781 265.257812 228.992188 264.300781 228.929688 C 263.902344 228.894531 263.328125 227.960938 266.039062 227.792969 C 268.148438 226.582031 269.480469 222.167969 267.839844 220.859375 C 267.652344 220.714844 267.640625 220.40625 267.839844 220.261719 C 269.191406 219.269531 266.652344 218.488281 265.933594 218.449219 C 264.835938 218.398438 263.710938 218.851562 264.050781 218.890625 C 264.542969 218.953125 264.445312 219.707031 263.957031 219.644531 C 263.046875 219.53125 263.128906 219.375 262.691406 220.0625 C 262.429688 220.476562 261.828125 220.007812 262.089844 219.59375 C 262.34375 219.199219 261.945312 219.722656 261.734375 219.730469 C 258.765625 219.816406 256.164062 222.574219 259.238281 224.863281 C 259.453125 225.023438 259.433594 225.433594 259.15625 225.515625 C 255.503906 226.648438 255.769531 231.179688 259.363281 232.15625 C 260.117188 232.359375 258.527344 234.484375 259.792969 235.898438 C 261.492188 237.808594 261.988281 232.5625 262.78125 233.847656 C 265.296875 237.964844 269.273438 235.289062 268.203125 233.046875 C 267.398438 231.347656 267.507812 232.351562 267.714844 230.609375 " fill-opacity="1" fill-rule="nonzero"/><path fill="#a4cb35" d="M 298.316406 242.914062 C 300.503906 241.925781 301.34375 239.265625 300.105469 237.203125 C 301.539062 235.808594 301.722656 233.578125 300.53125 231.964844 C 303.359375 229.683594 301.898438 225.078125 298.289062 224.855469 C 299.570312 220.292969 293.210938 217.6875 290.921875 221.835938 C 291.019531 219.773438 289.519531 217.945312 287.433594 217.675781 C 286.667969 217.574219 287.441406 217.605469 287.648438 215.972656 C 288.167969 212 283.15625 209.835938 280.597656 212.890625 C 280.296875 210.5 277.921875 208.816406 275.457031 209.574219 C 273.347656 213.300781 274.167969 219.453125 280.910156 218.765625 C 281.277344 218.726562 281.875 219.425781 280.445312 219.609375 C 276.042969 220.523438 277.230469 226.136719 281.546875 226.535156 C 281.703125 226.546875 281.878906 226.691406 281.878906 226.855469 C 281.964844 230.625 286.097656 230.027344 287.96875 227.933594 C 288.101562 227.789062 288.339844 227.722656 288.503906 227.863281 C 291.160156 230.167969 289.347656 236.808594 292.230469 234.175781 C 292.566406 233.875 293.007812 234.375 292.765625 234.710938 C 290.042969 238.539062 292.875 241.261719 291.6875 241.292969 C 289.308594 241.355469 286.910156 243.164062 288.597656 245.640625 C 288.792969 245.921875 288.511719 246.429688 288.152344 246.226562 C 285.683594 244.839844 283.320312 247.289062 284.277344 249.78125 C 285.160156 252.097656 278.988281 246.171875 277.59375 251.136719 C 277.34375 252.03125 274.808594 249.585938 273.132812 252.875 C 272.871094 253.402344 268.101562 251.707031 268.453125 256.304688 C 268.527344 257.171875 261.726562 257.207031 268.878906 261.328125 C 269.894531 260.800781 270.671875 259.855469 270.949219 258.679688 C 273.316406 260.867188 277.21875 259.480469 277.636719 256.246094 C 277.722656 255.5625 277.433594 256.214844 279.160156 256.441406 C 281.34375 256.726562 283.34375 255.191406 283.644531 253.015625 C 285.027344 254.972656 287.785156 255.289062 289.578125 253.699219 C 290.59375 260.390625 300.984375 255.957031 296.660156 250.582031 C 301 250.621094 302.273438 244.664062 298.316406 242.914062 " fill-opacity="1" fill-rule="nonzero"/><path fill="#73cc79" d="M 154.910156 233.359375 C 128.558594 227.261719 143.816406 200.089844 156.921875 207.894531 C 149.085938 198.425781 156.757812 190.632812 162.121094 188.570312 C 169.445312 185.753906 177.96875 191.136719 177.101562 199.371094 C 177.074219 181.84375 199.015625 190.390625 190.933594 202.101562 C 194.667969 191.21875 214.078125 196.117188 209.949219 208.890625 C 208.546875 213.230469 205.738281 213.578125 201.984375 215.0625 C 208.21875 215.070312 214.273438 215.894531 214.6875 225.320312 C 214.6875 225.320312 214.6875 233.359375 202.898438 233.359375 L 154.910156 233.359375 " fill-opacity="1" fill-rule="nonzero"/><path fill="#52b473" d="M 208.71875 215.855469 C 208.882812 218.851562 205.917969 220.917969 203.121094 219.644531 C 204.71875 224.566406 198.496094 226.644531 196.136719 222.722656 C 195.058594 227.0625 188.984375 226.058594 185.894531 223.273438 C 185.449219 228.390625 177.765625 227.203125 175.621094 223.300781 C 174.121094 227.59375 167.097656 228.582031 165.738281 224.101562 C 163.585938 228.394531 157.515625 228.699219 157.148438 224.34375 C 152.179688 227.554688 148.953125 217.972656 153.597656 216.515625 C 149.269531 214.214844 153.574219 209.488281 158.25 209.625 C 156.734375 207.617188 158.167969 204.179688 161.132812 203.601562 C 157.464844 200.707031 162.066406 194.246094 165.644531 196.121094 C 164.875 192.015625 169.847656 188.988281 173.5 190.453125 C 163.558594 182.136719 146.5 195.304688 156.921875 207.894531 C 143.816406 200.089844 128.558594 227.261719 154.910156 233.359375 C 201.125 233.359375 214.6875 235.96875 214.6875 225.320312 C 214.429688 219.480469 212.007812 216.941406 208.71875 215.855469 " fill-opacity="1" fill-rule="nonzero"/><path fill="#a4e2f8" d="M 59.695312 104.773438 C 58.375 102.109375 56.476562 99.804688 54.164062 98.023438 C 57.246094 93.75 62.289062 90.785156 69.296875 90.785156 C 69.589844 90.785156 69.785156 90.800781 69.910156 90.800781 C 70.332031 90.800781 69.890625 90.609375 69.570312 88.914062 C 72.046875 90.773438 75.160156 92.035156 78.917969 92.390625 C 76.628906 95.261719 74.453125 98.21875 72.390625 101.265625 C 71.765625 101.199219 71.140625 101.164062 70.503906 101.164062 C 66.90625 101.164062 63.179688 102.265625 59.695312 104.773438 " fill-opacity="1" fill-rule="nonzero"/><path fill="#fffbb4" d="M 106.472656 138.984375 C 103.308594 132.804688 96.992188 128.542969 89.652344 128.542969 C 89.101562 128.542969 88.550781 128.566406 87.988281 128.617188 C 93.746094 115.308594 84.121094 102.523438 72.390625 101.265625 C 74.453125 98.21875 76.628906 95.261719 78.917969 92.390625 C 79.632812 92.457031 80.371094 92.496094 81.132812 92.496094 C 87.230469 92.496094 92.648438 89.601562 96.109375 85.125 C 96.589844 97.011719 105.839844 103.148438 115.070312 103.148438 C 123.660156 103.148438 132.230469 97.84375 133.722656 86.921875 C 134.167969 87.371094 134.636719 87.796875 135.125 88.195312 C 135.234375 89.039062 135.292969 89.898438 135.292969 90.785156 C 136.621094 90.785156 137.882812 90.894531 139.070312 91.09375 C 132.40625 101.191406 136.117188 117.769531 150.234375 120.617188 C 150.144531 120.617188 150.054688 120.617188 149.964844 120.617188 C 143.96875 120.617188 138.160156 123.546875 134.554688 128.570312 C 129.609375 128.378906 125.152344 126.289062 121.890625 123.011719 C 121.226562 127.863281 119.164062 131.609375 116.324219 134.273438 C 113.597656 135.050781 111.023438 136.457031 108.816406 138.464844 C 108.046875 138.683594 107.265625 138.855469 106.472656 138.984375 " fill-opacity="1" fill-rule="nonzero"/><path fill="#d2f1fc" d="M 63.675781 115.992188 C 63.589844 109 58.882812 102.921875 52.339844 101.171875 C 52.84375 100.066406 53.453125 99.011719 54.164062 98.023438 C 56.476562 99.804688 58.375 102.109375 59.695312 104.773438 C 63.179688 102.265625 66.90625 101.164062 70.503906 101.164062 C 71.140625 101.164062 71.765625 101.199219 72.390625 101.265625 C 69.203125 105.976562 66.285156 110.898438 63.675781 115.992188 " fill-opacity="1" fill-rule="nonzero"/><path fill="#fffdda" d="M 103.238281 139.234375 C 94.003906 139.234375 84.757812 133.101562 84.273438 121.214844 C 82.335938 123.726562 79.777344 125.738281 76.832031 127.019531 C 74.320312 122.511719 69.640625 119.238281 63.65625 119.238281 C 63.566406 119.238281 63.472656 119.242188 63.382812 119.242188 C 63.59375 118.148438 63.6875 117.058594 63.675781 115.992188 C 66.285156 110.898438 69.203125 105.976562 72.390625 101.265625 C 84.121094 102.523438 93.746094 115.308594 87.988281 128.617188 C 88.550781 128.566406 89.101562 128.542969 89.652344 128.542969 C 96.992188 128.542969 103.308594 132.804688 106.472656 138.984375 C 105.402344 139.152344 104.320312 139.234375 103.238281 139.234375 M 108.816406 138.464844 C 111.023438 136.457031 113.597656 135.050781 116.324219 134.273438 C 114.175781 136.28125 111.585938 137.675781 108.816406 138.464844 M 135.292969 128.582031 C 135.046875 128.582031 134.800781 128.578125 134.554688 128.570312 C 138.160156 123.546875 143.96875 120.617188 149.964844 120.617188 C 150.054688 120.617188 150.144531 120.617188 150.234375 120.617188 C 150.4375 120.660156 150.640625 120.699219 150.847656 120.730469 C 147.8125 125.328125 142.628906 128.582031 135.292969 128.582031 " fill-opacity="1" fill-rule="nonzero"/><path fill="#e9f8fe" d="M 59.074219 125.910156 C 50.753906 120.839844 48.519531 109.585938 52.339844 101.171875 C 58.882812 102.921875 63.589844 109 63.675781 115.992188 C 62.015625 119.234375 60.480469 122.535156 59.074219 125.910156 " fill-opacity="1" fill-rule="nonzero"/><path fill="#fffeed" d="M 69.296875 128.582031 C 65.226562 128.582031 61.816406 127.582031 59.074219 125.910156 C 60.480469 122.535156 62.015625 119.234375 63.675781 115.992188 C 63.6875 117.058594 63.59375 118.148438 63.382812 119.242188 C 63.472656 119.242188 63.566406 119.238281 63.65625 119.238281 C 69.640625 119.238281 74.320312 122.511719 76.832031 127.019531 C 74.523438 128.023438 71.976562 128.582031 69.296875 128.582031 " fill-opacity="1" fill-rule="nonzero"/><g clip-path="url(#4f88df8215)"><path fill="#beeafb" d="M 297.488281 76.273438 C 292.253906 76.273438 287.511719 74.140625 284.085938 70.699219 C 283.882812 72.191406 283.546875 73.574219 283.097656 74.859375 C 265.335938 59.050781 243.558594 47.660156 219.472656 42.417969 C 222.480469 39.992188 226.484375 38.476562 231.496094 38.476562 C 231.789062 38.476562 231.988281 38.492188 232.113281 38.492188 C 232.722656 38.492188 231.496094 38.078125 231.496094 33.15625 C 231.496094 21.40625 241.019531 14.269531 250.644531 14.269531 C 256.808594 14.269531 263.011719 17.203125 266.777344 23.714844 C 270.351562 20.859375 274.445312 19.574219 278.460938 19.574219 C 288.21875 19.574219 297.488281 27.195312 297.488281 38.476562 C 322.527344 38.476562 322.488281 76.273438 297.488281 76.273438 " fill-opacity="1" fill-rule="nonzero"/></g><path fill="#fffcca" d="M 265.421875 86.917969 C 256.195312 86.917969 246.953125 80.796875 246.472656 68.902344 C 243.011719 73.382812 237.59375 76.273438 231.496094 76.273438 C 211.472656 76.273438 207.484375 52.101562 219.472656 42.417969 C 243.558594 47.660156 265.335938 59.050781 283.097656 74.859375 C 280.25 82.960938 272.84375 86.917969 265.421875 86.917969 " fill-opacity="1" fill-rule="nonzero"/><path fill="#beeafb" d="M 69.570312 88.914062 C 57.011719 79.484375 60.886719 54.695312 81.132812 54.695312 C 81.425781 54.695312 81.621094 54.714844 81.746094 54.714844 C 82.363281 54.714844 81.132812 54.304688 81.132812 49.378906 C 81.132812 37.628906 90.65625 30.496094 100.277344 30.496094 C 106.441406 30.496094 112.648438 33.421875 116.414062 39.941406 C 119.980469 37.089844 124.078125 35.796875 128.09375 35.796875 C 135.140625 35.796875 141.9375 39.765625 145.171875 46.226562 C 128.640625 51.664062 113.460938 60.074219 100.261719 70.820312 C 96.820312 67.925781 92.628906 66.582031 88.457031 66.582031 C 78.828125 66.582031 69.296875 73.734375 69.296875 85.46875 C 69.296875 87.023438 69.417969 88.128906 69.570312 88.914062 " fill-opacity="1" fill-rule="nonzero"/><path fill="#fffcca" d="M 139.273438 90.792969 C 137.777344 90.105469 136.382812 89.234375 135.125 88.195312 C 133.835938 78.34375 125.25 71.886719 116.257812 71.886719 C 112.242188 71.886719 108.144531 73.175781 104.578125 76.027344 C 103.367188 73.925781 101.898438 72.199219 100.261719 70.820312 C 113.460938 60.074219 128.640625 51.664062 145.171875 46.226562 C 146.410156 48.710938 147.125 51.5625 147.125 54.695312 C 154.429688 54.695312 159.597656 57.910156 162.636719 62.464844 C 157.9375 65.667969 154.621094 70.992188 154.621094 77.925781 C 154.621094 82.851562 155.859375 83.261719 155.238281 83.261719 C 155.113281 83.261719 154.917969 83.246094 154.621094 83.246094 C 147.453125 83.246094 142.335938 86.355469 139.273438 90.792969 " fill-opacity="1" fill-rule="nonzero"/><path fill="#d2f1fc" d="M 78.917969 92.390625 C 75.160156 92.035156 72.046875 90.773438 69.570312 88.914062 C 69.417969 88.128906 69.296875 87.023438 69.296875 85.46875 C 69.296875 73.734375 78.828125 66.582031 88.457031 66.582031 C 92.628906 66.582031 96.820312 67.925781 100.261719 70.820312 C 92.394531 77.226562 85.242188 84.457031 78.917969 92.390625 " fill-opacity="1" fill-rule="nonzero"/><path fill="#fffdda" d="M 115.070312 103.148438 C 105.839844 103.148438 96.589844 97.011719 96.109375 85.125 C 92.648438 89.601562 87.230469 92.496094 81.132812 92.496094 C 80.371094 92.496094 79.632812 92.457031 78.917969 92.390625 C 85.242188 84.457031 92.394531 77.226562 100.261719 70.820312 C 101.898438 72.199219 103.367188 73.925781 104.578125 76.027344 C 108.144531 73.175781 112.242188 71.886719 116.257812 71.886719 C 125.25 71.886719 133.835938 78.34375 135.125 88.195312 C 134.636719 87.796875 134.167969 87.371094 133.722656 86.921875 C 132.230469 97.84375 123.660156 103.148438 115.070312 103.148438 " fill-opacity="1" fill-rule="nonzero"/><path fill="#fffbb4" d="M 154.621094 121.039062 C 154.351562 121.039062 154.085938 121.035156 153.820312 121.027344 C 152.851562 120.816406 151.875 120.6875 150.902344 120.640625 C 157.582031 110.390625 153.644531 93.574219 139.070312 91.09375 C 139.136719 90.992188 139.203125 90.894531 139.273438 90.792969 C 141.664062 91.882812 144.324219 92.496094 147.125 92.496094 C 164.835938 92.496094 170.019531 73.527344 162.636719 62.464844 C 165.898438 60.238281 169.828125 59.039062 173.773438 59.039062 C 179.9375 59.039062 186.140625 61.972656 189.910156 68.484375 C 193.472656 65.632812 197.570312 64.347656 201.589844 64.347656 C 211.339844 64.347656 220.621094 71.953125 220.621094 83.246094 C 242.8125 83.246094 245.304688 112.949219 228.164062 119.691406 C 226.097656 109.949219 217.804688 104.492188 209.453125 104.492188 C 203.011719 104.492188 196.539062 107.734375 192.855469 114.757812 C 189.039062 110.839844 184.238281 109.042969 179.511719 109.042969 C 172.714844 109.042969 166.0625 112.761719 162.671875 119.246094 C 160.230469 120.394531 157.503906 121.039062 154.621094 121.039062 " fill-opacity="1" fill-rule="nonzero"/><path fill="#fffdda" d="M 188.570312 131.699219 C 179.335938 131.699219 170.082031 125.558594 169.597656 113.671875 C 167.773438 116.035156 165.402344 117.960938 162.671875 119.246094 C 166.0625 112.761719 172.714844 109.042969 179.511719 109.042969 C 184.238281 109.042969 189.039062 110.839844 192.855469 114.757812 C 196.539062 107.734375 203.011719 104.492188 209.453125 104.492188 C 217.804688 104.492188 226.097656 109.949219 228.164062 119.691406 C 225.972656 120.550781 223.457031 121.039062 220.621094 121.039062 C 215.382812 121.039062 210.640625 118.90625 207.214844 115.46875 C 205.722656 126.394531 197.15625 131.699219 188.570312 131.699219 M 153.820312 121.027344 C 152.785156 120.992188 151.792969 120.894531 150.847656 120.730469 C 150.863281 120.703125 150.882812 120.671875 150.902344 120.640625 C 151.875 120.6875 152.851562 120.816406 153.820312 121.027344 " fill-opacity="1" fill-rule="nonzero"/><path fill="#fffccb" d="M 150.902344 120.640625 C 150.683594 120.628906 150.457031 120.621094 150.234375 120.617188 C 136.117188 117.769531 132.40625 101.191406 139.070312 91.09375 C 153.644531 93.574219 157.582031 110.390625 150.902344 120.640625 " fill-opacity="1" fill-rule="nonzero"/><path fill="#fffee5" d="M 150.847656 120.730469 C 150.640625 120.699219 150.4375 120.660156 150.234375 120.617188 C 150.457031 120.621094 150.683594 120.628906 150.902344 120.640625 C 150.882812 120.671875 150.863281 120.703125 150.847656 120.730469 " fill-opacity="1" fill-rule="nonzero"/><path fill="#fffdda" d="M 147.125 92.496094 C 144.324219 92.496094 141.664062 91.882812 139.273438 90.792969 C 142.335938 86.355469 147.453125 83.246094 154.621094 83.246094 C 154.917969 83.246094 155.113281 83.261719 155.238281 83.261719 C 155.859375 83.261719 154.621094 82.851562 154.621094 77.925781 C 154.621094 70.992188 157.9375 65.667969 162.636719 62.464844 C 170.019531 73.527344 164.835938 92.496094 147.125 92.496094 " fill-opacity="1" fill-rule="nonzero"/><path fill="#75be41" d="M 48.363281 248.394531 C 49.933594 243.125 55.023438 243.425781 58.1875 246.863281 C 50.726562 246.066406 45.613281 229.738281 51.667969 225.632812 C 58.746094 220.832031 64.484375 228.203125 65.789062 232.734375 C 62.589844 229.011719 69.191406 220.234375 74.1875 221.34375 C 77.609375 222.097656 79.78125 228.363281 77.496094 230.671875 C 78.203125 217.90625 103.21875 220.863281 91.964844 231.984375 C 100.222656 218.367188 111.800781 240.503906 89.25 245.417969 C 72.886719 248.980469 43.898438 263.308594 48.363281 248.394531 " fill-opacity="1" fill-rule="nonzero"/><g clip-path="url(#2f057cbd0b)"><path fill="#a6da58" d="M 366.226562 356.996094 L 366.226562 271.5625 C 281.9375 214.015625 97.019531 215.058594 12.394531 270.554688 L 12.394531 356.996094 L 366.226562 356.996094 " fill-opacity="1" fill-rule="nonzero"/></g><g clip-path="url(#792321f044)"><path fill="#d2eca5" d="M 366.230469 356.996094 L 366.226562 271.5625 L 366.226562 356.996094 " fill-opacity="1" fill-rule="nonzero"/></g><g clip-path="url(#74a68160ff)"><path fill="#b8e4a7" d="M 366.226562 271.5625 C 366.210938 271.550781 366.191406 271.539062 366.175781 271.527344 C 366.191406 271.539062 366.210938 271.550781 366.226562 271.5625 " fill-opacity="1" fill-rule="nonzero"/></g><g clip-path="url(#86ea2a9a83)"><path fill="#89d149" d="M 366.226562 356.996094 L 12.394531 356.996094 L 12.394531 270.554688 C 35.222656 255.585938 67.285156 243.660156 104.910156 236.421875 C 97.160156 240.84375 91.675781 247.929688 92.898438 248.648438 C 96.085938 250.527344 99.53125 251.125 103.066406 251.125 C 108.589844 251.125 114.339844 249.664062 119.679688 249.339844 C 120.011719 249.320312 120.347656 249.3125 120.6875 249.3125 C 129.433594 249.3125 139.203125 255.910156 132.398438 261.011719 C 120.613281 269.84375 84.609375 267.214844 67.308594 280.886719 C 64.921875 282.773438 63.152344 286.238281 64.710938 289.226562 C 66.804688 293.238281 75.441406 291.585938 72.011719 296.777344 C 65.71875 306.277344 21.441406 319.484375 48.304688 334.546875 C 59.484375 340.8125 73.058594 342.335938 86.363281 342.335938 C 93.160156 342.335938 99.886719 341.941406 106.191406 341.570312 C 126.855469 340.363281 147.484375 339.976562 167.460938 339.976562 C 185.695312 339.976562 203.386719 340.300781 220.042969 340.625 C 236.707031 340.949219 252.332031 341.273438 266.453125 341.273438 C 316.816406 341.273438 347.984375 337.140625 338.195312 314.128906 C 334.507812 305.46875 314.277344 301.992188 317.496094 299.070312 C 319.609375 297.148438 322.292969 296.539062 325.300781 296.539062 C 327.878906 296.539062 330.6875 296.984375 333.589844 297.433594 C 336.488281 297.878906 339.472656 298.328125 342.386719 298.328125 C 344.777344 298.324219 347.121094 298.027344 349.339844 297.179688 C 355.664062 294.765625 359.929688 287.4375 360.324219 280.875 C 361 269.539062 347.480469 260.960938 337.324219 255.75 C 348.070312 260.496094 357.746094 265.78125 366.175781 271.527344 C 366.191406 271.539062 366.210938 271.550781 366.226562 271.5625 L 366.226562 356.996094 M 31.53125 275.652344 C 28.203125 275.652344 24.871094 277.851562 24.871094 282.253906 C 24.871094 286.65625 28.199219 288.855469 31.527344 288.855469 C 34.855469 288.855469 38.1875 286.65625 38.1875 282.253906 C 38.1875 277.851562 34.863281 275.652344 31.53125 275.652344 M 49.03125 282.273438 C 47.714844 282.273438 46.398438 283.144531 46.398438 284.886719 C 46.398438 286.628906 47.714844 287.5 49.03125 287.5 C 50.351562 287.5 51.667969 286.628906 51.667969 284.886719 C 51.667969 283.144531 50.351562 282.273438 49.03125 282.273438 M 42.5625 263.082031 C 40.375 263.082031 38.1875 264.53125 38.1875 267.421875 C 38.1875 270.3125 40.371094 271.753906 42.554688 271.753906 C 44.742188 271.753906 46.929688 270.308594 46.929688 267.421875 C 46.929688 264.53125 44.746094 263.082031 42.5625 263.082031 " fill-opacity="1" fill-rule="nonzero"/></g><path fill="#6bc638" d="M 31.527344 288.855469 C 28.199219 288.855469 24.871094 286.65625 24.871094 282.253906 C 24.871094 277.851562 28.203125 275.652344 31.53125 275.652344 C 34.863281 275.652344 38.1875 277.851562 38.1875 282.253906 C 38.1875 286.65625 34.855469 288.855469 31.527344 288.855469 " fill-opacity="1" fill-rule="nonzero"/><path fill="#6bc638" d="M 42.554688 271.753906 C 40.371094 271.753906 38.1875 270.3125 38.1875 267.421875 C 38.1875 264.53125 40.375 263.082031 42.5625 263.082031 C 44.746094 263.082031 46.929688 264.53125 46.929688 267.421875 C 46.929688 270.308594 44.742188 271.753906 42.554688 271.753906 " fill-opacity="1" fill-rule="nonzero"/><path fill="#6bc638" d="M 49.03125 287.5 C 47.714844 287.5 46.398438 286.628906 46.398438 284.886719 C 46.398438 283.144531 47.714844 282.273438 49.03125 282.273438 C 50.351562 282.273438 51.667969 283.144531 51.667969 284.886719 C 51.667969 286.628906 50.351562 287.5 49.03125 287.5 " fill-opacity="1" fill-rule="nonzero"/><path fill="#82cd37" d="M 351.710938 290.941406 C 348.386719 290.941406 345.058594 288.742188 345.058594 284.339844 C 345.058594 279.933594 348.382812 277.734375 351.710938 277.734375 C 355.039062 277.734375 358.371094 279.9375 358.371094 284.339844 C 358.371094 288.742188 355.042969 290.941406 351.710938 290.941406 " fill-opacity="1" fill-rule="nonzero"/><path fill="#82cd37" d="M 340.683594 273.835938 C 338.496094 273.835938 336.316406 272.394531 336.316406 269.503906 C 336.316406 266.613281 338.496094 265.167969 340.683594 265.167969 C 342.871094 265.167969 345.058594 266.617188 345.058594 269.503906 C 345.058594 272.390625 342.871094 273.835938 340.683594 273.835938 " fill-opacity="1" fill-rule="nonzero"/><path fill="#82cd37" d="M 334.210938 289.582031 C 332.894531 289.582031 331.578125 288.710938 331.578125 286.96875 C 331.578125 285.226562 332.894531 284.359375 334.210938 284.359375 C 335.527344 284.359375 336.847656 285.226562 336.847656 286.96875 C 336.847656 288.710938 335.527344 289.582031 334.210938 289.582031 " fill-opacity="1" fill-rule="nonzero"/><path fill="#94c639" d="M 269.050781 299.585938 C 270.65625 292.441406 276.097656 288.867188 276.097656 288.867188 C 268.480469 288.574219 266.347656 296.074219 265.761719 299.585938 L 269.050781 299.585938 " fill-opacity="1" fill-rule="nonzero"/><path fill="#94c639" d="M 265.597656 299.585938 C 264.539062 288.941406 271.722656 285.875 271.722656 285.875 C 262.339844 285.652344 261.691406 295.21875 261.878906 299.585938 L 265.597656 299.585938 " fill-opacity="1" fill-rule="nonzero"/><path fill="#94c639" d="M 263.457031 299.585938 C 263.726562 299.355469 258.960938 292.675781 261.910156 286.40625 C 256.796875 291.101562 257.894531 296.5 259.195312 299.585938 L 263.457031 299.585938 " fill-opacity="1" fill-rule="nonzero"/><path fill="#94c639" d="M 245.417969 306.441406 C 247.023438 299.296875 252.464844 295.726562 252.464844 295.726562 C 244.851562 295.433594 242.714844 302.929688 242.132812 306.441406 L 245.417969 306.441406 " fill-opacity="1" fill-rule="nonzero"/><path fill="#94c639" d="M 241.96875 306.441406 C 240.910156 295.796875 248.089844 292.730469 248.089844 292.730469 C 238.710938 292.507812 238.0625 302.078125 238.246094 306.441406 L 241.96875 306.441406 " fill-opacity="1" fill-rule="nonzero"/><path fill="#94c639" d="M 239.828125 306.441406 C 240.097656 306.210938 235.328125 299.53125 238.277344 293.257812 C 233.167969 297.957031 234.261719 303.355469 235.566406 306.441406 L 239.828125 306.441406 " fill-opacity="1" fill-rule="nonzero"/><path fill="#94c639" d="M 222.472656 298.128906 C 222.203125 290.230469 216.574219 287.324219 216.574219 287.324219 C 223.710938 287.546875 225.578125 294.332031 226.066406 298.128906 L 222.472656 298.128906 " fill-opacity="1" fill-rule="nonzero"/><path fill="#94c639" d="M 226.816406 298.128906 C 227.046875 288.183594 220.589844 284.6875 220.589844 284.6875 C 228.960938 284.949219 230.359375 294.996094 230.589844 298.128906 L 226.816406 298.128906 " fill-opacity="1" fill-rule="nonzero"/><path fill="#94c639" d="M 228.804688 298.128906 C 233.164062 291.105469 230.402344 285.214844 230.402344 285.214844 C 235.367188 289.78125 234.472656 295.007812 233.222656 298.128906 L 228.804688 298.128906 " fill-opacity="1" fill-rule="nonzero"/><path fill="#8cb84c" d="M 127.574219 317.113281 C 127.515625 319.839844 123.386719 319.753906 123.445312 317.023438 C 123.503906 314.292969 127.632812 314.390625 127.574219 317.113281 " fill-opacity="1" fill-rule="nonzero"/><path fill="#8cb84c" d="M 136.527344 313.324219 C 136.46875 316.058594 132.34375 315.957031 132.402344 313.238281 C 132.457031 310.519531 136.582031 310.59375 136.527344 313.324219 " fill-opacity="1" fill-rule="nonzero"/><path fill="#8cb84c" d="M 136.253906 320.992188 C 135.058594 318.726562 131.886719 318.757812 130.710938 320.992188 L 136.253906 320.992188 " fill-opacity="1" fill-rule="nonzero"/><path fill="#4e8232" d="M 110.65625 304.511719 C 110.609375 306.824219 112.515625 308.835938 115.054688 308.667969 C 113.691406 311.339844 115.597656 314.527344 118.597656 314.589844 C 118.523438 318.109375 123.125 319.453125 123.367188 319.28125 C 122.992188 319.777344 122.722656 320.359375 122.601562 320.992188 C 165.164062 320.992188 161.863281 321.585938 161.921875 319.640625 C 163.511719 321.441406 166.390625 321.449219 167.996094 319.691406 C 168.125 320.164062 168.335938 320.601562 168.609375 320.992188 C 174.953125 320.992188 175.953125 321.636719 176.015625 318.738281 C 176.039062 317.582031 175.582031 316.53125 174.820312 315.773438 C 179.199219 315.34375 179.875 309.1875 175.660156 307.835938 C 177.765625 306.605469 178.339844 303.824219 176.859375 301.871094 C 178.15625 300.296875 178.097656 298.027344 176.722656 296.523438 C 179.335938 293.910156 177.363281 289.398438 173.683594 289.582031 C 174.476562 284.8125 167.773438 282.890625 165.90625 287.324219 C 165.78125 285.222656 164.070312 283.535156 161.925781 283.488281 C 161.074219 283.472656 161.929688 283.585938 161.964844 281.742188 C 162.054688 277.671875 156.753906 276.019531 154.5 279.390625 C 153.511719 275.226562 147.566406 275.222656 146.566406 279.382812 C 145.652344 274.617188 138.59375 275.207031 138.484375 280.070312 C 138.46875 281.4375 138.867188 281.234375 138.460938 281.234375 C 137.007812 281.203125 135.71875 281.941406 134.972656 283.066406 C 133.304688 280.289062 129.253906 280.472656 127.824219 283.355469 C 125.589844 278.304688 117.933594 281.945312 120.476562 286.875 C 117.851562 285.953125 115.101562 287.859375 115.039062 290.632812 C 114.992188 292.628906 115.957031 292.410156 115 292.375 C 110.265625 292.273438 109.207031 299.035156 113.769531 300.363281 C 113.617188 300.921875 110.730469 301.304688 110.65625 304.511719 " fill-opacity="1" fill-rule="nonzero"/><path fill="#75be41" d="M 134.628906 318.96875 C 134.445312 319.597656 133.277344 319.316406 132.1875 320.992188 C 202.867188 320.992188 198.300781 321.25 197.71875 320.472656 C 198.992188 318.933594 198.976562 316.664062 197.582031 315.128906 C 200.101562 312.609375 198.378906 308.257812 194.785156 308.179688 C 194.40625 308.164062 194.582031 308.335938 194.601562 307.589844 C 194.699219 303.125 188.507812 301.78125 186.769531 305.925781 C 186.636719 303.703125 184.722656 301.929688 182.378906 302.101562 C 184.703125 297.570312 178.164062 293.800781 175.359375 297.996094 C 174.363281 293.816406 168.414062 293.835938 167.425781 297.988281 C 166.371094 292.53125 158.011719 294.402344 159.492188 299.851562 C 158 299.746094 156.617188 300.476562 155.828125 301.671875 C 154.175781 298.914062 150.113281 299.0625 148.679688 301.960938 C 146.914062 297.96875 140.96875 299.199219 140.875 303.515625 C 140.8125 306.28125 142.367188 305.285156 140.0625 305.25 C 137.074219 305.183594 135.019531 308.261719 136.265625 311.011719 C 131.34375 310.351562 129.820312 317.5625 134.628906 318.96875 " fill-opacity="1" fill-rule="nonzero"/><path fill="#a6d734" d="M 164.25 320.992188 C 164.6875 318.320312 163.1875 315.132812 160.351562 316.695312 C 160.027344 316.867188 156.230469 316.070312 154.757812 318.644531 C 152.996094 321.714844 156.207031 320.992188 164.25 320.992188 " fill-opacity="1" fill-rule="nonzero"/><path fill="#a6d734" d="M 172.699219 302.449219 C 171.777344 302.46875 172.949219 299.949219 171.332031 299.523438 C 170.273438 299.246094 170.175781 300.738281 170.195312 301.425781 C 170.214844 301.925781 169.441406 301.90625 169.421875 301.40625 C 169.394531 300.976562 169.503906 301.183594 169.230469 301.210938 C 166.566406 301.476562 166.113281 304.613281 169.160156 304.511719 C 169.617188 304.496094 169.640625 305.144531 169.246094 305.273438 C 165.921875 306.371094 170.386719 309.375 171.582031 308.546875 C 172.773438 307.71875 170.800781 304.722656 172.25 305.503906 C 174.84375 306.890625 176.414062 302.371094 172.699219 302.449219 " fill-opacity="1" fill-rule="nonzero"/><path fill="#a6d734" d="M 180.152344 317.410156 C 179.777344 317.570312 179.316406 317.078125 179.691406 316.792969 C 181.585938 315.355469 181.554688 313.371094 179.277344 314.003906 C 180.21875 314.210938 179.742188 314.929688 179.324219 314.808594 C 178.113281 314.464844 176.6875 314.773438 176.375 316.167969 C 175.851562 318.46875 178.308594 317.894531 178.523438 318.300781 C 181.445312 323.761719 184.625 315.480469 180.152344 317.410156 " fill-opacity="1" fill-rule="nonzero"/><path fill="#6ca041" d="M 181.648438 304.550781 C 182.101562 304.359375 182.480469 304.988281 182.03125 305.226562 C 177.210938 307.226562 182 312.617188 185.769531 312.253906 C 187.097656 312 187.003906 312.910156 185.859375 313.023438 C 182.5 313.816406 184.800781 318.671875 188.25 318.328125 L 188.25 318.332031 C 188.847656 318.417969 188.941406 319.304688 187.371094 319.0625 C 186.050781 319.167969 184.464844 319.980469 183.929688 320.992188 L 198.046875 320.992188 C 197.523438 320.011719 200.003906 317.789062 197.582031 315.128906 C 200.082031 312.628906 198.457031 308.144531 194.542969 308.183594 C 195.335938 303.433594 188.636719 301.480469 186.769531 305.925781 C 186.640625 303.824219 184.929688 302.140625 182.785156 302.09375 C 181.972656 302.066406 182.789062 302.101562 182.824219 300.347656 C 182.878906 297.976562 180.875 295.980469 178.367188 296.203125 C 174.574219 299.492188 176.921875 307.042969 181.648438 304.550781 " fill-opacity="1" fill-rule="nonzero"/><path fill="#6ca041" d="M 132.933594 317.980469 C 131.875 313.585938 138.523438 313.144531 139.765625 316.792969 C 141.117188 314.492188 143.824219 317.515625 145.8125 319.589844 C 145.292969 317.640625 146.253906 315.230469 148.152344 315.417969 C 147.4375 313.394531 149.890625 310.542969 153.019531 311.367188 C 152.253906 309.25 154.71875 307.367188 156.769531 308.289062 C 156.667969 306.617188 158.6875 305.539062 160.585938 305.695312 C 159.949219 303.988281 161.226562 301.355469 163.285156 300.695312 C 161.597656 299.332031 161.683594 296.4375 163.136719 294.699219 C 158.628906 295.015625 159.480469 299.835938 159.320312 299.839844 C 157.867188 299.808594 156.578125 300.542969 155.828125 301.671875 C 154.175781 298.914062 150.113281 299.0625 148.679688 301.960938 C 146.441406 296.910156 138.773438 300.539062 141.335938 305.480469 C 138.722656 304.558594 135.957031 306.457031 135.894531 309.234375 C 135.855469 311.269531 136.8125 311 135.859375 310.980469 C 132.160156 310.902344 130.285156 315.421875 132.933594 317.980469 " fill-opacity="1" fill-rule="nonzero"/><path fill="#75be41" d="M 78.175781 316.820312 C 78.054688 322.835938 81.34375 320.992188 144.644531 320.992188 C 144.226562 320.617188 143.734375 320.324219 143.183594 320.148438 C 145.3125 318.894531 145.84375 316.105469 144.378906 314.175781 C 145.65625 312.640625 145.644531 310.359375 144.242188 308.832031 C 146.800781 306.277344 144.996094 301.773438 141.203125 301.886719 C 142.039062 297.175781 135.304688 295.15625 133.429688 299.628906 C 133.304688 297.527344 131.589844 295.839844 129.445312 295.796875 C 128.664062 295.773438 129.449219 295.726562 129.484375 294.050781 C 129.578125 289.980469 124.269531 288.332031 122.019531 291.695312 C 121.03125 287.523438 115.070312 287.539062 114.089844 291.691406 C 113.171875 286.933594 106.113281 287.496094 106.007812 292.375 C 105.972656 293.734375 106.378906 293.550781 105.984375 293.539062 C 104.53125 293.507812 103.238281 294.242188 102.492188 295.375 C 100.820312 292.597656 96.769531 292.78125 95.34375 295.660156 C 93.101562 290.605469 85.4375 294.25 87.992188 299.183594 C 85.410156 298.257812 82.617188 300.148438 82.5625 302.933594 C 82.511719 304.960938 83.480469 304.707031 82.523438 304.683594 C 77.78125 304.585938 76.734375 311.34375 81.289062 312.667969 C 81.136719 313.222656 78.25 313.617188 78.175781 316.820312 " fill-opacity="1" fill-rule="nonzero"/><path fill="#4e8232" d="M 110.90625 311.011719 C 110.9375 307.996094 108.230469 309.644531 107.269531 309.675781 C 106.859375 309.6875 106.214844 308.800781 108.90625 308.335938 C 110.921875 306.886719 111.761719 302.273438 109.976562 301.136719 C 109.773438 301.007812 109.726562 300.699219 109.914062 300.527344 C 111.175781 299.378906 108.519531 298.859375 107.789062 298.910156 C 106.664062 298.972656 105.609375 299.539062 105.933594 299.554688 C 106.433594 299.5625 106.417969 300.339844 105.917969 300.324219 C 104.988281 300.308594 105.050781 300.148438 104.6875 300.882812 C 104.46875 301.332031 103.808594 300.921875 104.027344 300.480469 C 104.21875 300.054688 103.949219 300.617188 103.683594 300.652344 C 100.6875 301.058594 98.355469 304.128906 101.714844 306.117188 C 101.945312 306.25 101.972656 306.667969 101.699219 306.785156 C 98.128906 308.320312 98.890625 312.875 102.628906 313.472656 C 103.410156 313.59375 102.039062 315.921875 103.46875 317.214844 C 105.367188 318.933594 105.332031 313.601562 106.269531 314.816406 C 109.265625 318.71875 112.988281 315.566406 111.667969 313.425781 C 110.667969 311.792969 110.886719 312.792969 110.90625 311.011719 " fill-opacity="1" fill-rule="nonzero"/><path fill="#a4cb35" d="M 122.273438 297.789062 C 123.957031 297.242188 123.425781 298.273438 123.160156 298.355469 C 117.8125 300 120.230469 305.457031 124.460938 305.386719 C 124.617188 305.382812 124.804688 305.515625 124.828125 305.679688 C 125.316406 309.484375 129.433594 308.433594 131.101562 306.113281 C 131.707031 305.28125 133.03125 307.332031 133.632812 309.550781 C 134.015625 310.960938 134.328125 313.953125 136.085938 311.964844 C 136.390625 311.625 136.894531 312.082031 136.6875 312.449219 C 134.355469 316.597656 137.5 319.066406 136.308594 319.222656 C 135.039062 319.390625 133.820312 320.058594 133.246094 320.992188 C 141.277344 320.992188 147.320312 321.464844 143.183594 320.148438 C 145.3125 318.894531 145.84375 316.105469 144.378906 314.175781 C 145.65625 312.640625 145.644531 310.359375 144.242188 308.832031 C 146.800781 306.277344 144.996094 301.773438 141.203125 301.886719 C 142.039062 297.175781 135.304688 295.15625 133.429688 299.628906 C 133.304688 297.527344 131.589844 295.839844 129.445312 295.796875 C 128.664062 295.773438 129.449219 295.726562 129.484375 294.050781 C 129.578125 289.980469 124.269531 288.332031 122.019531 291.695312 C 121.457031 289.324219 118.886719 287.867188 116.460938 288.894531 C 114.582031 293.238281 116.855469 298.972656 122.273438 297.789062 " fill-opacity="1" fill-rule="nonzero"/></svg>